<?xml version="1.0" standalone="no"?>
<!DOCTYPE svg PUBLIC "-//W3C//DTD SVG 20010904//EN"
 "http://www.w3.org/TR/2001/REC-SVG-20010904/DTD/svg10.dtd">
<svg version="1.0" xmlns="http://www.w3.org/2000/svg"
 width="512.000000pt" height="512.000000pt" viewBox="0 0 512.000000 512.000000"
 preserveAspectRatio="xMidYMid meet">

<g transform="translate(0.000000,512.000000) scale(0.100000,-0.100000)"
fill="#000000" stroke="none">
<path d="M2090 4670 c-323 -17 -643 -58 -780 -100 -77 -23 -138 -62 -145 -93
-6 -23 261 -3709 271 -3740 8 -24 96 -93 163 -127 133 -66 321 -118 537 -147
182 -24 666 -24 849 0 212 29 401 80 530 144 62 31 151 97 164 122 6 10 71
856 146 1880 125 1706 135 1864 121 1886 -48 73 -312 130 -756 165 -182 14
-896 21 -1100 10z m1145 -114 c228 -20 384 -42 504 -72 134 -34 134 -34 0 -68
-505 -127 -1853 -127 -2358 0 -134 34 -134 34 0 68 159 40 477 76 789 90 193
8 893 -4 1065 -18z m-1845 -246 c207 -48 554 -78 1010 -87 568 -10 1167 34
1394 102 27 8 51 13 53 11 2 -2 -54 -803 -126 -1780 l-130 -1776 -28 -25 c-43
-37 -178 -101 -278 -130 -356 -103 -981 -112 -1373 -19 -127 30 -249 78 -325
128 l-56 37 -6 62 c-6 66 -255 3472 -255 3495 0 8 7 11 18 8 9 -3 55 -14 102
-26z"/>
<path d="M2277 1159 c-221 -18 -437 -69 -512 -120 -61 -42 -79 -97 -49 -148
49 -83 257 -144 579 -171 255 -20 315 -13 315 40 0 40 -22 47 -185 54 -183 7
-350 28 -457 55 -83 22 -158 55 -158 72 0 17 103 58 196 79 161 34 291 45 554
45 150 0 298 -5 360 -13 228 -29 379 -76 401 -126 22 -47 84 -46 95 1 9 34
-17 81 -60 111 -146 100 -652 156 -1079 121z"/>
</g>
</svg>
